#define apply_width 18
#define apply_height 18
static unsigned char apply_bits[] = {
   0x00, 0x00, 0x00, 0x00, 0x00, 0x00, 0x00, 0x00, 0x02, 0x00, 0x00, 0x03,
   0x00, 0x80, 0x03, 0x00, 0xc0, 0x03, 0x00, 0xe0, 0x03, 0x01, 0xf0, 0x01,
   0x03, 0xf8, 0x00, 0x07, 0x7c, 0x00, 0x0f, 0x3e, 0x00, 0x1f, 0x1f, 0x00,
   0xbe, 0x0f, 0x00, 0xfc, 0x07, 0x00, 0xf8, 0x03, 0x00, 0xf0, 0x01, 0x00,
   0xe0, 0x00, 0x00, 0x40, 0x00, 0x00 };
