#define arrow_home_width 6
#define arrow_home_height 9
static unsigned char arrow_home_bits[] = {
   0x21, 0x31, 0x39, 0x3d, 0x3f, 0x3d, 0x39, 0x31, 0x21 };
