#define arrow_left_width 5
#define arrow_left_height 9
static unsigned char arrow_left_bits[] = {
   0x10, 0x18, 0x1c, 0x1e, 0x1f, 0x1e, 0x1c, 0x18, 0x10 };
