#define arrow_end_width 6
#define arrow_end_height 9
static unsigned char arrow_end_bits[] = {
   0x21, 0x23, 0x27, 0x2f, 0x3f, 0x2f, 0x27, 0x23, 0x21 };
