#define arrow_top_width 15
#define arrow_top_height 15
static unsigned char arrow_top_bits[] = {
   0xfe, 0x3f, 0xfe, 0x3f, 0xfe, 0x3f, 0xc0, 0x01, 0xe0, 0x03, 0xf0, 0x07,
   0xf8, 0x0f, 0xfc, 0x1f, 0xee, 0x3b, 0xe6, 0x33, 0xe2, 0x23, 0xe0, 0x03,
   0xe0, 0x03, 0xe0, 0x03, 0xe0, 0x03 };
