#define arrow_top_width 13
#define arrow_top_height 15
static unsigned char arrow_top_bits[] = {
   0xff, 0x1f, 0xff, 0x1f, 0x40, 0x00, 0xe0, 0x00, 0xf0, 0x01, 0xf8, 0x03,
   0xec, 0x06, 0xe6, 0x0c, 0xe3, 0x18, 0xe0, 0x00, 0xe0, 0x00, 0xe0, 0x00,
   0xe0, 0x00, 0xe0, 0x00, 0xe0, 0x00 };
