#define arrow_down_width 9
#define arrow_down_height 5
static unsigned char arrow_down_bits[] = {
   0xff, 0x01, 0xfe, 0x00, 0x7c, 0x00, 0x38, 0x00, 0x10, 0x00 };
