#define box_width 18
#define box_height 18
static unsigned char box_bits[] = {
   0x00, 0x00, 0x00, 0x60, 0x18, 0x00, 0x70, 0x38, 0x00, 0x38, 0x70, 0x00,
   0x1c, 0xe0, 0x00, 0x0e, 0xc0, 0x01, 0x07, 0x80, 0x03, 0xff, 0xff, 0x03,
   0xff, 0xff, 0x03, 0xff, 0xff, 0x03, 0xff, 0xff, 0x03, 0xff, 0xff, 0x03,
   0xff, 0xff, 0x03, 0xff, 0xff, 0x03, 0xff, 0xff, 0x03, 0xff, 0xff, 0x03,
   0xff, 0xff, 0x03, 0xff, 0xff, 0x03 };
