#define cancel_width 18
#define cancel_height 18
static unsigned char cancel_bits[] = {
   0x07, 0x80, 0x03, 0x0f, 0xc0, 0x03, 0x1f, 0xe0, 0x03, 0x3e, 0xf0, 0x01,
   0x7c, 0xf8, 0x00, 0xf8, 0x7c, 0x00, 0xf0, 0x3f, 0x00, 0xe0, 0x1f, 0x00,
   0xc0, 0x0f, 0x00, 0xc0, 0x0f, 0x00, 0xe0, 0x1f, 0x00, 0xf0, 0x3f, 0x00,
   0xf8, 0x7c, 0x00, 0x7c, 0xf8, 0x00, 0x3e, 0xf0, 0x01, 0x1f, 0xe0, 0x03,
   0x0f, 0xc0, 0x03, 0x07, 0x80, 0x03 };
