#define directory_width 20
#define directory_height 15
static unsigned char directory_bits[] = {
   0xff, 0x03, 0x00, 0xff, 0x07, 0x00, 0xff, 0x0f, 0x00, 0xff, 0x1f, 0x00,
   0xff, 0xff, 0x0f, 0xff, 0xff, 0x0f, 0xff, 0xff, 0x0f, 0xff, 0xff, 0x0f,
   0xff, 0xff, 0x0f, 0xff, 0xff, 0x0f, 0xff, 0xff, 0x0f, 0xff, 0xff, 0x0f,
   0xff, 0xff, 0x0f, 0xff, 0xff, 0x0f, 0xff, 0xff, 0x0f };
