#define error_width 18
#define error_height 18
static unsigned char error_bits[] = {
   0xc0, 0x0f, 0x00, 0xc0, 0x0f, 0x00, 0xc0, 0x0f, 0x00, 0xc0, 0x0f, 0x00,
   0xc0, 0x0f, 0x00, 0xc0, 0x0f, 0x00, 0xc0, 0x0f, 0x00, 0xc0, 0x0f, 0x00,
   0xc0, 0x0f, 0x00, 0xc0, 0x0f, 0x00, 0xc0, 0x0f, 0x00, 0x00, 0x00, 0x00,
   0x00, 0x00, 0x00, 0xc0, 0x0f, 0x00, 0xc0, 0x0f, 0x00, 0xc0, 0x0f, 0x00,
   0xc0, 0x0f, 0x00, 0xc0, 0x0f, 0x00 };
