#define expand_width 11
#define expand_height 7
static unsigned char expand_bits[] = {
   0x88, 0x00, 0x04, 0x01, 0xfe, 0x03, 0xff, 0x07, 0xfe, 0x03, 0x04, 0x01,
   0x88, 0x00 };
