#define files_width 18
#define files_height 18
static unsigned char files_bits[] = {
   0xff, 0xff, 0x03, 0xff, 0xff, 0x03, 0x03, 0x00, 0x03, 0x83, 0x07, 0x03,
   0x03, 0x00, 0x03, 0x03, 0x00, 0x03, 0x03, 0x00, 0x03, 0x03, 0x00, 0x03,
   0xff, 0xff, 0x03, 0xff, 0xff, 0x03, 0x03, 0x00, 0x03, 0x83, 0x07, 0x03,
   0x03, 0x00, 0x03, 0x03, 0x00, 0x03, 0x03, 0x00, 0x03, 0x03, 0x00, 0x03,
   0xff, 0xff, 0x03, 0xff, 0xff, 0x03 };
