#define help_width 8
#define help_height 13
static unsigned char help_bits[] = {
   0x18, 0x3c, 0x66, 0xc3, 0xc3, 0x60, 0x30, 0x18, 0x18, 0x18, 0x00, 0x18,
   0x18 };
