#define home_dir_width 15
#define home_dir_height 15
static unsigned char home_dir_bits[] = {
   0x00, 0x00, 0x80, 0x00, 0xc0, 0x01, 0xe0, 0x03, 0xf0, 0x07, 0xf8, 0x0f,
   0xfc, 0x1f, 0xfe, 0x3f, 0x3d, 0x5e, 0x3c, 0x1e, 0x3c, 0x1e, 0x3c, 0x1e,
   0x3c, 0x1e, 0xfc, 0x1f, 0xfc, 0x1f };
