#define info_width 18
#define info_height 18
static unsigned char info_bits[] = {
   0x00, 0x00, 0x00, 0xfe, 0xff, 0x01, 0x02, 0x00, 0x01, 0x02, 0x03, 0x01,
   0x02, 0x03, 0x01, 0x02, 0x00, 0x01, 0x02, 0x00, 0x01, 0x02, 0x03, 0x01,
   0x02, 0x03, 0x01, 0x02, 0x03, 0x01, 0x02, 0x03, 0x01, 0x02, 0x03, 0x01,
   0x02, 0x03, 0x01, 0x02, 0x03, 0x01, 0x02, 0x03, 0x01, 0x02, 0x00, 0x01,
   0xfe, 0xff, 0x01, 0x00, 0x00, 0x00 };
