#define refresh_width 18
#define refresh_height 18
static unsigned char refresh_bits[] = {
   0x00, 0x70, 0x00, 0x00, 0xe0, 0x00, 0x00, 0xc0, 0x01, 0xff, 0xff, 0x03,
   0xff, 0xff, 0x03, 0xff, 0xff, 0x03, 0x00, 0xc0, 0x01, 0x00, 0xe0, 0x00,
   0x00, 0x70, 0x00, 0x38, 0x00, 0x00, 0x1c, 0x00, 0x00, 0x0e, 0x00, 0x00,
   0xff, 0xff, 0x03, 0xff, 0xff, 0x03, 0xff, 0xff, 0x03, 0x0e, 0x00, 0x00,
   0x1c, 0x00, 0x00, 0x38, 0x00, 0x00 };
