#define reset_width 13
#define reset_height 13
static unsigned char reset_bits[] = {
   0xf8, 0x1f, 0xf8, 0x1f, 0x18, 0x18, 0x18, 0x18, 0x18, 0x18, 0xdb, 0x18,
   0x7e, 0x18, 0x3c, 0x18, 0x18, 0x18, 0x00, 0x18, 0x00, 0x18, 0xf8, 0x1f,
   0xf8, 0x1f };
