#define upgrade_width 18
#define upgrade_height 18
static unsigned char upgrade_bits[] = {
   0x80, 0x07, 0x00, 0x80, 0x07, 0x00, 0x80, 0x07, 0x00, 0x80, 0x07, 0x00,
   0x80, 0x07, 0x00, 0x80, 0x07, 0x00, 0x80, 0x07, 0x00, 0xff, 0xff, 0x03,
   0xff, 0xff, 0x03, 0xff, 0xff, 0x03, 0xff, 0xff, 0x03, 0x80, 0x07, 0x00,
   0x80, 0x07, 0x00, 0x80, 0x07, 0x00, 0x80, 0x07, 0x00, 0x80, 0x07, 0x00,
   0x80, 0x07, 0x00, 0x80, 0x07, 0x00 };
